<?xml version="1.0" encoding="UTF-8" standalone="no"?>
<svg
   xmlns:dc="http://purl.org/dc/elements/1.1/"
   xmlns:cc="http://creativecommons.org/ns#"
   xmlns:rdf="http://www.w3.org/1999/02/22-rdf-syntax-ns#"
   xmlns:svg="http://www.w3.org/2000/svg"
   xmlns="http://www.w3.org/2000/svg"
   xmlns:sodipodi="http://sodipodi.sourceforge.net/DTD/sodipodi-0.dtd"
   xmlns:inkscape="http://www.inkscape.org/namespaces/inkscape"
   width="420"
   height="420"
   viewBox="0 0 111.125 111.12501"
   version="1.1"
   id="svg8"
   inkscape:version="1.0.2-2 (e86c870879, 2021-01-15)"
   sodipodi:docname="Hiragana letter small Yu.svg">
  <defs
     id="defs2" />
  <sodipodi:namedview
     id="base"
     pagecolor="#ffffff"
     bordercolor="#666666"
     borderopacity="1.0"
     inkscape:pageopacity="0.0"
     inkscape:pageshadow="2"
     inkscape:zoom="0.98994949"
     inkscape:cx="345.76714"
     inkscape:cy="230.41447"
     inkscape:document-units="px"
     inkscape:current-layer="layer1"
     showgrid="false"
     units="px"
     showguides="true"
     inkscape:guide-bbox="true"
     inkscape:snap-center="true"
     inkscape:snap-object-midpoints="false"
     inkscape:window-width="1366"
     inkscape:window-height="705"
     inkscape:window-x="-8"
     inkscape:window-y="-8"
     inkscape:window-maximized="1"
     inkscape:document-rotation="0"
     inkscape:snap-bbox="true"
     inkscape:bbox-paths="true"
     inkscape:bbox-nodes="true" />
  <metadata
     id="metadata5">
    <rdf:RDF>
      <cc:Work
         rdf:about="">
        <dc:format>image/svg+xml</dc:format>
        <dc:type
           rdf:resource="http://purl.org/dc/dcmitype/StillImage" />
        <dc:title />
      </cc:Work>
    </rdf:RDF>
  </metadata>
  <g
     inkscape:label="Layer 1"
     inkscape:groupmode="layer"
     id="layer1"
     transform="translate(0,-185.87499)">
    <path
       d="m 64.611224,272.39365 c 3.17499,-6.77331 3.915821,-14.81662 3.915821,-21.90743 0,-4.12749 -0.317499,-8.04331 -0.952497,-11.42996 7.302477,0.52916 14.710787,5.07998 14.710787,16.08661 0,12.1708 -8.46664,17.03912 -17.674111,17.25078 z M 47.042946,250.38039 c 0,-1.69333 0.105833,-3.38666 0.317499,-5.07999 4.762485,-3.49249 9.419137,-5.39748 14.604954,-6.03248 0.423332,3.06916 0.634998,6.87915 0.634998,11.64163 0,8.04331 -0.952497,15.02829 -3.598322,20.95494 -7.937475,-2.01083 -11.959129,-8.88998 -11.959129,-21.4841 z m 3.598322,-17.88578 c 1.693328,-3.49249 3.492489,-4.76248 5.397483,-4.76248 2.11666,0 4.127487,1.90499 5.397483,8.0433 -5.397483,0.84667 -10.054135,2.64583 -13.334958,4.76249 0.634998,-3.06916 1.481662,-5.92665 2.539992,-8.04331 z m 16.086616,2.85749 c -1.904994,-6.98498 -5.397483,-11.32413 -10.054135,-11.32413 -2.751658,0 -6.138314,1.79916 -8.784139,6.56165 -1.799161,3.28082 -3.280823,7.51414 -4.021654,13.01746 -6.561646,5.39748 -11.112465,12.06496 -14.81662,20.31993 -1.05833,-1.37583 -1.587495,-3.80999 -1.587495,-6.24415 0,-4.12748 2.11666,-9.20747 3.809988,-13.33495 0.952497,-1.905 2.328326,-4.23332 2.328326,-6.34998 0,-2.43416 -2.751658,-5.60915 -4.339153,-6.98498 -1.481662,-1.27 -3.280823,-2.22249 -5.185817,-2.75166 l -1.05833,0.84666 c 1.693328,2.2225 4.127487,4.97416 4.127487,8.46664 0,5.50332 -3.809988,13.54663 -3.809988,21.37827 0,7.30248 2.328326,12.59413 4.23332,14.92245 1.269996,1.48167 2.328326,2.54 3.915821,2.54 1.799161,0 2.645825,-1.05833 2.645825,-2.54 0,-2.43416 -1.164163,-3.70415 -1.164163,-6.56164 0,-3.49249 4.021654,-12.59413 10.371634,-18.73244 -0.105833,1.69332 -0.211666,3.49249 -0.211666,5.29165 0,11.74746 4.762485,20.00243 12.805793,23.17742 -3.492489,4.86832 -8.678306,8.67831 -15.980783,11.5358 l 0.740831,1.5875 c 10.371634,-2.75166 16.086616,-6.34998 20.319936,-11.8533 0.952497,0.10583 2.010827,0.21167 2.963324,0.21167 14.81662,0 24.129924,-8.57248 24.129924,-22.33077 0,-12.48829 -9.313304,-20.8491 -21.060767,-20.8491 z"
       style="font-style:normal;font-variant:normal;font-weight:normal;font-stretch:normal;font-size:105.833px;line-height:100%;font-family:'Noto Serif CJK JP';-inkscape-font-specification:'Noto Serif CJK JP';text-align:center;letter-spacing:0px;word-spacing:0px;text-anchor:middle;fill:#FFFFFF;fill-opacity:1;stroke:none;stroke-width:0.264583px;stroke-linecap:butt;stroke-linejoin:miter;stroke-opacity:1"
       id="path9" />
  </g>
</svg>
