<?xml version="1.0" encoding="UTF-8" standalone="no"?>
<svg
   xmlns:dc="http://purl.org/dc/elements/1.1/"
   xmlns:cc="http://creativecommons.org/ns#"
   xmlns:rdf="http://www.w3.org/1999/02/22-rdf-syntax-ns#"
   xmlns:svg="http://www.w3.org/2000/svg"
   xmlns="http://www.w3.org/2000/svg"
   xmlns:sodipodi="http://sodipodi.sourceforge.net/DTD/sodipodi-0.dtd"
   xmlns:inkscape="http://www.inkscape.org/namespaces/inkscape"
   width="420"
   height="420"
   viewBox="0 0 111.125 111.12501"
   version="1.1"
   id="svg8"
   inkscape:version="1.0.2-2 (e86c870879, 2021-01-15)"
   sodipodi:docname="Hiragana letter small Wa.svg">
  <defs
     id="defs2" />
  <sodipodi:namedview
     id="base"
     pagecolor="#ffffff"
     bordercolor="#666666"
     borderopacity="1.0"
     inkscape:pageopacity="0.0"
     inkscape:pageshadow="2"
     inkscape:zoom="0.98994949"
     inkscape:cx="345.76714"
     inkscape:cy="230.41447"
     inkscape:document-units="px"
     inkscape:current-layer="layer1"
     showgrid="false"
     units="px"
     showguides="true"
     inkscape:guide-bbox="true"
     inkscape:snap-center="true"
     inkscape:snap-object-midpoints="false"
     inkscape:window-width="1366"
     inkscape:window-height="705"
     inkscape:window-x="-8"
     inkscape:window-y="-8"
     inkscape:window-maximized="1"
     inkscape:document-rotation="0"
     inkscape:snap-bbox="true"
     inkscape:bbox-paths="true"
     inkscape:bbox-nodes="true" />
  <metadata
     id="metadata5">
    <rdf:RDF>
      <cc:Work
         rdf:about="">
        <dc:format>image/svg+xml</dc:format>
        <dc:type
           rdf:resource="http://purl.org/dc/dcmitype/StillImage" />
        <dc:title />
      </cc:Work>
    </rdf:RDF>
  </metadata>
  <g
     inkscape:label="Layer 1"
     inkscape:groupmode="layer"
     id="layer1"
     transform="translate(0,-185.87499)">
    <path
       d="m 39.317137,276.62697 c -0.952497,-1.16416 -3.598322,-4.12749 -5.714982,-6.77331 2.434159,-3.49249 4.868318,-7.09081 7.090811,-10.37163 -0.211666,6.56164 0,13.01745 0,16.50994 0,1.27 -0.529165,1.48167 -1.375829,0.635 z m 6.032481,-27.51658 c 1.164163,-1.48166 2.434159,-3.06916 3.598322,-4.12749 1.05833,-1.16416 1.904994,-2.01082 1.904994,-3.06915 0,-0.9525 -1.799161,-2.75166 -3.280823,-3.38666 l -0.211666,-0.10583 c 0.529165,-2.32833 0.952497,-4.23332 1.375829,-5.39748 0.846664,-3.06916 1.904994,-4.12749 1.904994,-5.60915 0,-2.54 -4.550819,-6.45582 -8.254974,-6.45582 -2.010827,0 -3.704155,0.52917 -5.397483,1.16417 v 1.48166 c 2.010827,0.42333 3.598322,0.9525 4.656652,1.37583 1.375829,0.52916 1.904994,0.95249 1.904994,2.85749 0,2.22249 -0.529165,6.56164 -1.164163,11.85329 -4.127487,2.01083 -11.535797,5.39749 -13.440791,5.39749 -1.587495,0 -2.751658,-1.27 -4.021654,-3.49249 l -1.375829,0.52916 c 0,1.05833 0.105833,2.2225 0.423332,3.49249 0.846664,2.85749 4.339153,6.03248 6.879145,6.03248 1.481662,0 2.328326,-1.58749 3.915821,-2.75165 1.799161,-1.05833 4.444986,-2.54 6.984978,-3.80999 -0.211666,1.90499 -0.423332,3.80999 -0.529165,5.82081 -5.185817,7.72581 -11.006632,14.49912 -17.144946,22.01327 -1.269996,1.58749 -2.010827,2.96332 -2.010827,4.65665 0,2.01083 1.05833,3.38665 2.434159,3.38665 1.481662,0 2.11666,-1.05833 3.280823,-2.64582 l 4.550819,-6.56165 c 2.222493,3.06916 4.444986,6.98498 5.185817,8.88998 0.846664,1.90499 1.164163,3.59832 1.481662,5.60914 0.423332,2.01083 1.269996,2.96333 3.17499,2.96333 2.434159,0 3.809988,-4.02166 3.809988,-7.30248 0,-1.90499 -0.317499,-3.38665 -0.423332,-5.82081 -0.211666,-4.44499 -1.05833,-13.65246 -0.740831,-21.90743 6.032481,-5.18582 14.710787,-9.52497 22.754095,-9.52497 8.995805,0 14.499121,6.13831 14.499121,13.75829 0,8.9958 -4.23332,19.36743 -24.34159,27.19908 l 0.634998,1.69332 c 22.436596,-5.07998 30.69157,-15.34578 30.69157,-26.98741 0,-11.11247 -9.630803,-18.52078 -20.214103,-18.52078 -8.572473,0 -16.086616,3.28083 -23.600759,7.83165 z"
       style="font-style:normal;font-variant:normal;font-weight:normal;font-stretch:normal;font-size:105.833px;line-height:100%;font-family:'Noto Serif CJK JP';-inkscape-font-specification:'Noto Serif CJK JP';text-align:center;letter-spacing:0px;word-spacing:0px;text-anchor:middle;fill:#FFFFFF;fill-opacity:1;stroke:none;stroke-width:0.264583px;stroke-linecap:butt;stroke-linejoin:miter;stroke-opacity:1"
       id="path9" />
  </g>
</svg>
