<?xml version="1.0" encoding="UTF-8" standalone="no"?>
<svg
   xmlns:dc="http://purl.org/dc/elements/1.1/"
   xmlns:cc="http://creativecommons.org/ns#"
   xmlns:rdf="http://www.w3.org/1999/02/22-rdf-syntax-ns#"
   xmlns:svg="http://www.w3.org/2000/svg"
   xmlns="http://www.w3.org/2000/svg"
   xmlns:sodipodi="http://sodipodi.sourceforge.net/DTD/sodipodi-0.dtd"
   xmlns:inkscape="http://www.inkscape.org/namespaces/inkscape"
   width="420"
   height="420"
   viewBox="0 0 111.125 111.12501"
   version="1.1"
   id="svg8"
   inkscape:version="1.0.2-2 (e86c870879, 2021-01-15)"
   sodipodi:docname="Hiragana letter small Wo.svg">
  <defs
     id="defs2" />
  <sodipodi:namedview
     id="base"
     pagecolor="#ffffff"
     bordercolor="#666666"
     borderopacity="1.0"
     inkscape:pageopacity="0.0"
     inkscape:pageshadow="2"
     inkscape:zoom="0.98994949"
     inkscape:cx="345.76714"
     inkscape:cy="230.41447"
     inkscape:document-units="px"
     inkscape:current-layer="layer1"
     showgrid="false"
     units="px"
     showguides="true"
     inkscape:guide-bbox="true"
     inkscape:snap-center="true"
     inkscape:snap-object-midpoints="false"
     inkscape:window-width="1366"
     inkscape:window-height="705"
     inkscape:window-x="-8"
     inkscape:window-y="-8"
     inkscape:window-maximized="1"
     inkscape:document-rotation="0"
     inkscape:snap-bbox="true"
     inkscape:bbox-paths="true"
     inkscape:bbox-nodes="true" />
  <metadata
     id="metadata5">
    <rdf:RDF>
      <cc:Work
         rdf:about="">
        <dc:format>image/svg+xml</dc:format>
        <dc:type
           rdf:resource="http://purl.org/dc/dcmitype/StillImage" />
        <dc:title />
      </cc:Work>
    </rdf:RDF>
  </metadata>
  <g
     inkscape:label="Layer 1"
     inkscape:groupmode="layer"
     id="layer1"
     transform="translate(0,-185.87499)">
    <path
       d="m 44.193724,242.83276 q -7.648087,1.03353 -9.301728,0.10335 -1.550288,-0.82682 -3.824044,-4.85757 l 0.930173,-0.62011 q 1.24023,1.44693 3.100576,2.27375 3.513986,1.24024 11.162074,-0.41341 2.583814,-4.3408 4.754217,-8.57826 0.930173,-1.65364 0.103353,-3.51398 -0.723468,-1.34359 -3.513987,-3.30728 l 0.41341,-1.44694 q 5.27098,2.1704 7.441383,4.03075 1.756993,1.65364 1.653641,2.68717 -0.103353,0.72346 -1.240231,1.55028 -2.480461,2.27376 -5.270979,7.33803 10.025196,-3.20392 10.335254,-4.44416 0.206705,-0.62011 1.860346,-0.62011 1.550288,0 2.790518,0.41341 1.136878,0.51676 1.136878,1.13688 0.103353,0.82682 -2.067051,2.06705 -4.444159,2.48046 -16.639759,5.47768 -2.583813,4.23746 -6.304504,10.74867 6.201152,-3.30728 8.57826,-3.30728 3.203929,0 5.581037,1.75699 3.203929,2.48046 3.410634,7.75144 7.751441,-3.72069 13.745888,-5.06427 2.997224,-1.24024 3.203929,-1.757 0.310057,-0.93017 -0.930173,-3.61734 l 1.136878,-0.72346 q 2.893871,3.72069 3.410634,7.02797 0.310057,1.86034 -0.206706,2.27375 -0.620115,0.41341 -1.860345,0.31006 -1.446936,0 -3.617339,0.62012 -8.681613,2.37711 -14.779413,4.96092 -0.103353,12.91907 -0.930173,14.1593 -0.516763,0.82682 -1.240231,0.82682 -0.930172,0 -1.550288,-1.03353 -0.723467,-1.24023 -0.620115,-2.1704 0.103353,-5.99445 0.206705,-10.0252 -3.927396,1.75699 -6.51121,3.61734 -6.407857,4.54751 -6.407857,9.19838 0,4.65086 4.030749,6.20115 8.371556,3.72069 20.670508,0.72347 1.65364,-0.41341 3.203928,0.72346 1.240231,1.03353 1.240231,1.9637 0,1.24023 -4.444159,1.757 -15.812939,1.86034 -22.634206,-2.37711 -4.85757,-3.51399 -4.85757,-8.99167 0.103353,-5.27098 5.994448,-10.2319 4.237454,-3.7207 9.611786,-6.30451 -0.206705,-4.96092 -0.723468,-6.20115 -1.550288,-2.89387 -4.134102,-2.79052 -3.617339,0 -7.33803,3.10058 -4.340807,3.41063 -9.301729,12.1956 -0.620115,0.93017 -1.136877,0.82682 -0.516763,-0.31006 -1.033526,-0.62012 -0.41341,-0.51676 -0.41341,-2.89387 0,-2.58381 2.893871,-6.61456 5.581037,-7.8548 10.231901,-15.29618 z"
       style="font-style:normal;font-variant:normal;font-weight:normal;font-stretch:normal;font-size:105.833px;line-height:100%;font-family:'BabelStone Han';-inkscape-font-specification:'BabelStone Han';text-align:center;letter-spacing:0px;word-spacing:0px;text-anchor:middle;fill:#FFFFFF;fill-opacity:1;stroke:none;stroke-width:0.264583px;stroke-linecap:butt;stroke-linejoin:miter;stroke-opacity:1"
       id="path9" />
  </g>
</svg>
