<?xml version="1.0" encoding="UTF-8" standalone="no"?>
<svg
   xmlns:dc="http://purl.org/dc/elements/1.1/"
   xmlns:cc="http://creativecommons.org/ns#"
   xmlns:rdf="http://www.w3.org/1999/02/22-rdf-syntax-ns#"
   xmlns:svg="http://www.w3.org/2000/svg"
   xmlns="http://www.w3.org/2000/svg"
   xmlns:sodipodi="http://sodipodi.sourceforge.net/DTD/sodipodi-0.dtd"
   xmlns:inkscape="http://www.inkscape.org/namespaces/inkscape"
   width="420"
   height="420"
   viewBox="0 0 111.125 111.12501"
   version="1.1"
   id="svg8"
   inkscape:version="1.0.2-2 (e86c870879, 2021-01-15)"
   sodipodi:docname="Hiragana letter bidakuon Ngu.svg">
  <defs
     id="defs2" />
  <sodipodi:namedview
     id="base"
     pagecolor="#ffffff"
     bordercolor="#666666"
     borderopacity="1.0"
     inkscape:pageopacity="0.0"
     inkscape:pageshadow="2"
     inkscape:zoom="0.98994949"
     inkscape:cx="345.76714"
     inkscape:cy="230.41447"
     inkscape:document-units="px"
     inkscape:current-layer="layer1"
     showgrid="false"
     units="px"
     showguides="true"
     inkscape:guide-bbox="true"
     inkscape:snap-center="true"
     inkscape:snap-object-midpoints="false"
     inkscape:window-width="1366"
     inkscape:window-height="705"
     inkscape:window-x="-8"
     inkscape:window-y="-8"
     inkscape:window-maximized="1"
     inkscape:document-rotation="0"
     inkscape:snap-bbox="true"
     inkscape:bbox-paths="true"
     inkscape:bbox-nodes="true" />
  <metadata
     id="metadata5">
    <rdf:RDF>
      <cc:Work
         rdf:about="">
        <dc:format>image/svg+xml</dc:format>
        <dc:type
           rdf:resource="http://purl.org/dc/dcmitype/StillImage" />
        <dc:title />
      </cc:Work>
    </rdf:RDF>
  </metadata>
  <g
     inkscape:label="Layer 1"
     inkscape:groupmode="layer"
     id="layer1"
     transform="translate(0,-185.87499)">
    <path
       d="m 77.046601,230.48378 c 6.561646,0 11.853296,-5.29165 11.853296,-11.85329 0,-6.56165 -5.29165,-11.8533 -11.853296,-11.8533 -6.667479,0 -11.959129,5.29165 -11.959129,11.8533 0,6.56164 5.29165,11.85329 11.959129,11.85329 z m 0,-20.31993 c 4.656652,0 8.360807,3.80999 8.360807,8.46664 0,4.65665 -3.704155,8.3608 -8.360807,8.3608 -4.762485,0 -8.46664,-3.70415 -8.46664,-8.3608 0,-4.65665 3.704155,-8.46664 8.46664,-8.46664 z m -23.812425,-2.75166 c 0,1.27 -0.634998,2.32833 -2.434159,4.44499 -4.868318,5.92664 -20.531602,21.1666 -25.823252,27.41074 -1.693328,1.79916 -2.751658,3.70416 -2.751658,5.60915 0,2.32833 1.375829,4.55082 4.127487,6.77331 12.805793,10.9008 20.425769,18.52078 25.39992,26.03492 2.963324,4.44499 3.915821,7.09081 5.079984,9.20747 0.740831,1.37583 2.010827,2.53999 3.704155,2.53999 2.645825,0 4.021654,-1.79916 4.021654,-4.55081 0,-3.06916 -2.222493,-7.19665 -5.185817,-11.00664 -7.514143,-9.52497 -16.721614,-16.40411 -27.622413,-25.08242 -2.328326,-1.79916 -3.598322,-3.17499 -3.598322,-4.55082 0,-1.26999 0.634998,-2.43416 3.704155,-5.50331 4.444986,-4.44499 18.414942,-17.35661 25.505753,-23.0716 3.704155,-2.75165 5.503316,-3.59832 5.503316,-5.82081 0,-2.53999 -3.915821,-6.98498 -7.619976,-8.99581 -2.11666,-1.16416 -4.021654,-1.69332 -6.561646,-2.22249 l -1.269996,2.01083 c 4.339153,2.96332 5.820815,4.97415 5.820815,6.77331 z"
       style="font-style:normal;font-variant:normal;font-weight:normal;font-stretch:normal;font-size:105.833px;line-height:100%;font-family:'Noto Serif CJK JP';-inkscape-font-specification:'Noto Serif CJK JP';text-align:center;letter-spacing:0px;word-spacing:0px;text-anchor:middle;fill:#FFFFFF;fill-opacity:1;stroke:none;stroke-width:0.264583px;stroke-linecap:butt;stroke-linejoin:miter;stroke-opacity:1"
       id="path9" />
  </g>
</svg>
