<?xml version="1.0" encoding="UTF-8" standalone="no"?>
<svg
   xmlns:dc="http://purl.org/dc/elements/1.1/"
   xmlns:cc="http://creativecommons.org/ns#"
   xmlns:rdf="http://www.w3.org/1999/02/22-rdf-syntax-ns#"
   xmlns:svg="http://www.w3.org/2000/svg"
   xmlns="http://www.w3.org/2000/svg"
   xmlns:sodipodi="http://sodipodi.sourceforge.net/DTD/sodipodi-0.dtd"
   xmlns:inkscape="http://www.inkscape.org/namespaces/inkscape"
   width="420"
   height="420"
   viewBox="0 0 111.125 111.12501"
   version="1.1"
   id="svg8"
   inkscape:version="1.0.2-2 (e86c870879, 2021-01-15)"
   sodipodi:docname="Hiragana digraph Yori 3.svg">
  <defs
     id="defs2" />
  <sodipodi:namedview
     id="base"
     pagecolor="#ffffff"
     bordercolor="#666666"
     borderopacity="1.0"
     inkscape:pageopacity="0.0"
     inkscape:pageshadow="2"
     inkscape:zoom="0.98994949"
     inkscape:cx="345.76714"
     inkscape:cy="230.41447"
     inkscape:document-units="px"
     inkscape:current-layer="layer1"
     showgrid="false"
     units="px"
     showguides="true"
     inkscape:guide-bbox="true"
     inkscape:snap-center="true"
     inkscape:snap-object-midpoints="false"
     inkscape:window-width="1366"
     inkscape:window-height="705"
     inkscape:window-x="-8"
     inkscape:window-y="-8"
     inkscape:window-maximized="1"
     inkscape:document-rotation="0"
     inkscape:snap-bbox="true"
     inkscape:bbox-paths="true"
     inkscape:bbox-nodes="true" />
  <metadata
     id="metadata5">
    <rdf:RDF>
      <cc:Work
         rdf:about="">
        <dc:format>image/svg+xml</dc:format>
        <dc:type
           rdf:resource="http://purl.org/dc/dcmitype/StillImage" />
        <dc:title />
      </cc:Work>
    </rdf:RDF>
  </metadata>
  <g
     inkscape:label="Layer 1"
     inkscape:groupmode="layer"
     id="layer1"
     transform="translate(0,-185.87499)">
    <path
       d="m 65.140389,211.43384 c 1.693328,-3.38665 3.704155,-4.02165 3.704155,-6.03248 0,-2.43416 -5.714982,-5.71498 -9.842469,-6.45581 -2.222493,-0.42333 -4.974151,-0.21167 -7.937475,0.3175 l -0.211666,2.32832 c 6.244147,1.27 8.360807,2.64583 8.149141,5.50332 -0.423332,7.09081 -15.239952,34.28989 -21.1666,43.39153 -5.29165,8.36081 -12.382461,17.25078 -16.192449,22.4366 -3.492489,4.44498 -4.23332,6.03248 -4.23332,8.3608 0,2.43416 1.375829,4.44499 3.386656,4.33916 1.799161,0 3.17499,-1.69333 5.079984,-4.86832 3.386656,-5.60915 8.784139,-14.60496 13.75829,-21.37827 5.609149,-7.51414 12.805793,-13.44079 23.812425,-13.44079 6.561646,0 9.313304,3.59832 9.313304,9.41914 0,11.11246 -7.725809,24.97659 -18.732441,24.97659 -2.645825,0 -5.820815,-2.85749 -10.159968,-8.14914 l -2.010827,1.16416 c 2.11666,4.02165 3.492489,6.98498 4.868318,10.68913 1.269996,3.59832 3.17499,4.12749 7.831642,3.70416 14.922453,-1.37583 24.553256,-16.82745 24.553256,-31.96157 0,-9.41914 -6.773312,-13.33496 -14.181622,-13.33496 -7.937475,0 -13.229125,2.64583 -17.144946,4.55082 -1.587495,0.74083 -1.587495,0.10583 -1.05833,-1.05833 1.799161,-3.38665 6.34998,-11.85329 10.5833,-19.68494 8.572473,-1.37583 15.663284,-1.26999 21.060767,-0.42333 6.34998,1.05833 10.054135,4.12749 12.488294,4.12749 1.904994,0 2.857491,-1.05833 2.857491,-2.85749 0,-2.85749 -4.127487,-6.34998 -8.46664,-6.98498 -5.29165,-0.74083 -16.086616,-0.10583 -25.611586,1.69333 z"
       style="font-style:normal;font-variant:normal;font-weight:normal;font-stretch:normal;font-size:105.833px;line-height:100%;font-family:'Noto Serif CJK JP';-inkscape-font-specification:'Noto Serif CJK JP';text-align:center;letter-spacing:0px;word-spacing:0px;text-anchor:middle;fill:#FFFFFF;fill-opacity:1;stroke:none;stroke-width:0.264583px;stroke-linecap:butt;stroke-linejoin:miter;stroke-opacity:1"
       id="path9" />
  </g>
</svg>
