<?xml version="1.0" encoding="UTF-8" standalone="no"?>
<svg
   xmlns:dc="http://purl.org/dc/elements/1.1/"
   xmlns:cc="http://creativecommons.org/ns#"
   xmlns:rdf="http://www.w3.org/1999/02/22-rdf-syntax-ns#"
   xmlns:svg="http://www.w3.org/2000/svg"
   xmlns="http://www.w3.org/2000/svg"
   xmlns:sodipodi="http://sodipodi.sourceforge.net/DTD/sodipodi-0.dtd"
   xmlns:inkscape="http://www.inkscape.org/namespaces/inkscape"
   width="420"
   height="420"
   viewBox="0 0 111.125 111.12501"
   version="1.1"
   id="svg8"
   inkscape:version="1.0.2-2 (e86c870879, 2021-01-15)"
   sodipodi:docname="Hiragana letter small Ya.svg">
  <defs
     id="defs2" />
  <sodipodi:namedview
     id="base"
     pagecolor="#ffffff"
     bordercolor="#666666"
     borderopacity="1.0"
     inkscape:pageopacity="0.0"
     inkscape:pageshadow="2"
     inkscape:zoom="0.98994949"
     inkscape:cx="345.76714"
     inkscape:cy="230.41447"
     inkscape:document-units="px"
     inkscape:current-layer="layer1"
     showgrid="false"
     units="px"
     showguides="true"
     inkscape:guide-bbox="true"
     inkscape:snap-center="true"
     inkscape:snap-object-midpoints="false"
     inkscape:window-width="1366"
     inkscape:window-height="705"
     inkscape:window-x="-8"
     inkscape:window-y="-8"
     inkscape:window-maximized="1"
     inkscape:document-rotation="0"
     inkscape:snap-bbox="true"
     inkscape:bbox-paths="true"
     inkscape:bbox-nodes="true" />
  <metadata
     id="metadata5">
    <rdf:RDF>
      <cc:Work
         rdf:about="">
        <dc:format>image/svg+xml</dc:format>
        <dc:type
           rdf:resource="http://purl.org/dc/dcmitype/StillImage" />
        <dc:title />
      </cc:Work>
    </rdf:RDF>
  </metadata>
  <g
     inkscape:label="Layer 1"
     inkscape:groupmode="layer"
     id="layer1"
     transform="translate(0,-185.87499)">
    <path
       d="m 47.476002,223.71047 c 4.762485,1.37583 7.40831,3.70416 8.254974,5.60915 0.634998,1.27 0.317499,1.79916 -0.846664,1.90499 -2.328326,0.3175 -8.360807,0.74084 -14.393288,1.05833 -2.539992,0.21167 -6.561646,-0.31749 -7.302477,4.44499 -0.634998,3.06916 1.05833,4.44499 2.751658,6.45581 1.05833,1.37583 2.328326,2.96333 3.915821,5.29165 l -6.455813,3.28083 c -2.751658,1.48166 -5.29165,2.53999 -7.090811,2.53999 -1.799161,0 -3.492489,-1.79916 -4.762485,-3.59832 l -1.587495,0.74083 c -0.105833,2.43416 0.211666,3.80999 1.164163,5.18581 1.375829,2.32833 5.185817,4.76249 7.514143,4.76249 2.328326,0 3.492489,-1.79916 7.090811,-4.23332 2.222493,-1.37583 4.444986,-2.85749 6.879145,-4.33915 4.656652,7.93747 7.619976,16.19245 9.419137,22.01326 1.587495,5.18582 2.328326,9.6308 2.963324,11.5358 0.740831,2.43416 1.693328,3.38665 3.386656,3.38665 2.11666,0 3.386656,-1.69332 3.386656,-4.33915 0,-2.85749 -1.269996,-7.30248 -2.857491,-11.11246 -2.751658,-6.45582 -6.773312,-15.76912 -11.959129,-24.23576 9.630803,-5.71498 19.579105,-10.5833 27.304914,-10.5833 6.138314,0 10.900799,3.80999 10.900799,9.41914 0,6.03248 -4.762485,9.73663 -11.64163,9.73663 -5.926648,0 -10.371634,-1.69333 -15.557451,-5.71498 l -1.269996,1.16416 c 4.974151,6.66748 11.429964,9.84247 17.462445,9.84247 9.630803,0 17.039113,-4.86832 17.039113,-13.44079 0,-7.93747 -6.455813,-13.86412 -16.509948,-13.86412 -8.784139,0 -19.155773,4.23332 -30.268238,9.6308 -2.539992,-3.49249 -5.714982,-7.40831 -5.714982,-8.9958 0,-1.79917 0.952497,-2.11666 3.280823,-2.32833 4.550819,-0.3175 11.535797,-0.21167 14.499121,0 2.010827,0.3175 3.598322,1.05833 4.974151,1.05833 1.693328,0 2.645825,-0.9525 2.645825,-2.96332 0,-1.905 -0.952497,-4.02166 -2.645825,-5.82082 -2.11666,-2.43416 -6.34998,-4.86832 -13.440791,-5.07998 z"
       style="font-style:normal;font-variant:normal;font-weight:normal;font-stretch:normal;font-size:105.833px;line-height:100%;font-family:'Noto Serif CJK JP';-inkscape-font-specification:'Noto Serif CJK JP';text-align:center;letter-spacing:0px;word-spacing:0px;text-anchor:middle;fill:#FFFFFF;fill-opacity:1;stroke:none;stroke-width:0.264583px;stroke-linecap:butt;stroke-linejoin:miter;stroke-opacity:1"
       id="path9" />
  </g>
</svg>
