<?xml version="1.0" encoding="UTF-8" standalone="no"?>
<svg
   xmlns:dc="http://purl.org/dc/elements/1.1/"
   xmlns:cc="http://creativecommons.org/ns#"
   xmlns:rdf="http://www.w3.org/1999/02/22-rdf-syntax-ns#"
   xmlns:svg="http://www.w3.org/2000/svg"
   xmlns="http://www.w3.org/2000/svg"
   xmlns:sodipodi="http://sodipodi.sourceforge.net/DTD/sodipodi-0.dtd"
   xmlns:inkscape="http://www.inkscape.org/namespaces/inkscape"
   width="420"
   height="420"
   viewBox="0 0 111.125 111.12501"
   version="1.1"
   id="svg8"
   inkscape:version="1.0.2-2 (e86c870879, 2021-01-15)"
   sodipodi:docname="Hiragana letter small Yo.svg">
  <defs
     id="defs2" />
  <sodipodi:namedview
     id="base"
     pagecolor="#ffffff"
     bordercolor="#666666"
     borderopacity="1.0"
     inkscape:pageopacity="0.0"
     inkscape:pageshadow="2"
     inkscape:zoom="0.98994949"
     inkscape:cx="345.76714"
     inkscape:cy="230.41447"
     inkscape:document-units="px"
     inkscape:current-layer="layer1"
     showgrid="false"
     units="px"
     showguides="true"
     inkscape:guide-bbox="true"
     inkscape:snap-center="true"
     inkscape:snap-object-midpoints="false"
     inkscape:window-width="1366"
     inkscape:window-height="705"
     inkscape:window-x="-8"
     inkscape:window-y="-8"
     inkscape:window-maximized="1"
     inkscape:document-rotation="0"
     inkscape:snap-bbox="true"
     inkscape:bbox-paths="true"
     inkscape:bbox-nodes="true" />
  <metadata
     id="metadata5">
    <rdf:RDF>
      <cc:Work
         rdf:about="">
        <dc:format>image/svg+xml</dc:format>
        <dc:type
           rdf:resource="http://purl.org/dc/dcmitype/StillImage" />
        <dc:title />
      </cc:Work>
    </rdf:RDF>
  </metadata>
  <g
     inkscape:label="Layer 1"
     inkscape:groupmode="layer"
     id="layer1"
     transform="translate(0,-185.87499)">
    <path
       d="m 41.486713,282.97695 c -5.503316,0 -8.572473,-2.11666 -8.572473,-4.97415 0,-3.59832 5.185817,-6.56165 12.911626,-6.56165 2.751658,0 5.397483,0.21167 7.831642,0.74084 -0.105833,7.40831 -2.751658,10.79496 -12.170795,10.79496 z M 58.31416,266.99617 c -0.423332,-6.13832 -0.846664,-15.55745 -0.846664,-19.36744 0,-0.74083 0,-1.69333 0.105833,-2.64583 1.799161,0.9525 4.021654,1.905 5.820815,1.905 5.079984,0 11.429964,-1.48166 13.75829,-2.32833 2.222493,-0.74083 3.069157,-1.79916 3.069157,-2.96332 0,-2.32833 -2.328326,-3.28082 -5.609149,-3.28082 -0.952497,0 -2.539992,0.95249 -4.974151,1.79916 -2.857491,1.05833 -7.40831,1.79916 -10.265801,1.79916 -0.423332,0 -1.05833,0 -1.693328,-0.10584 0.317499,-3.38665 0.634998,-6.98497 1.05833,-8.78413 0.634998,-2.43416 1.799161,-3.06916 1.799161,-4.86832 0,-2.32833 -5.29165,-5.29165 -9.948302,-5.29165 -2.222493,0 -4.550819,0.84666 -6.561646,1.69333 l 0.211666,1.37582 c 1.799161,0.10584 4.021654,0.42334 5.820815,1.16417 1.375829,0.52916 1.799161,1.16416 2.010827,2.85749 0.317499,1.69333 0.423332,11.64163 0.423332,16.61578 0.105833,5.18582 0.740831,14.49912 1.05833,20.74327 -1.481662,-0.10584 -2.963324,-0.21167 -4.550819,-0.21167 -10.265801,0 -19.684938,3.70416 -19.684938,11.5358 0,6.13831 6.244147,9.84247 14.710787,9.84247 10.689133,0 15.239952,-5.07999 15.239952,-11.64163 0,-1.27 -0.105833,-2.2225 -0.211666,-3.28083 2.539992,0.84667 4.762485,1.79917 6.773312,2.96333 7.725809,4.55082 10.371634,9.3133 13.334958,9.3133 1.693328,0 2.645825,-0.95249 2.645825,-2.85749 0,-4.33915 -6.455813,-8.6783 -11.853296,-11.11246 -3.280823,-1.5875 -7.090811,-2.96333 -11.535797,-3.80999 z"
       style="font-style:normal;font-variant:normal;font-weight:normal;font-stretch:normal;font-size:105.833px;line-height:100%;font-family:'Noto Serif CJK JP';-inkscape-font-specification:'Noto Serif CJK JP';text-align:center;letter-spacing:0px;word-spacing:0px;text-anchor:middle;fill:#FFFFFF;fill-opacity:1;stroke:none;stroke-width:0.264583px;stroke-linecap:butt;stroke-linejoin:miter;stroke-opacity:1"
       id="path9" />
  </g>
</svg>
